<svg xmlns="http://www.w3.org/2000/svg" xmlns:xlink="http://www.w3.org/1999/xlink" width="379.99" height="380"><defs><linearGradient id="b" x1="516.24" y1="-101.04" x2="3.36" y2="392.55" gradientUnits="userSpaceOnUse"><stop offset="0" stop-color="#00f152"/><stop offset="1" stop-color="#0076e9"/></linearGradient><linearGradient id="a" x1="185.75" y1="238.93" x2="242.71" y2="226.43" gradientUnits="userSpaceOnUse"><stop offset="0" stop-color="#98bdcf"/><stop offset="1" stop-color="#fff"/></linearGradient><linearGradient id="c" x1="246.95" y1="323.17" x2="91.09" y2="218.94" xlink:href="#a"/></defs><g data-name="图层 1"><path d="M81.71 218.65c0 .93 0 1.83.07 2.76a108.65 108.65 0 0034.06 76.19 107.37 107.37 0 0074.1 29.4c2.29 0 4.62-.07 7-.19A108.17 108.17 0 00297.79 230a1.87 1.87 0 000-.47c.15-1.7.31-3.41.38-5.12a107.51 107.51 0 00-5.35-39.88l-4.42.82-42.13 7.76a61.1 61.1 0 01-3.34 57.1c-.08.12-.11.19-.19.31C232.5 267.3 214.46 279 194 280.3a61.8 61.8 0 01-65.75-61.65 62.28 62.28 0 0144.53-59.35c2-.58 4.54-1.05 7.06-1.52L374.37 122l-23.51 132.6v.07a169.07 169.07 0 01-45.86 83.7c-66.41 66.45-174.14 66.41-240.59 0A169.34 169.34 0 0115 230c-.12-1.28-.19-2.56-.23-3.84s-.12-2.72-.16-4.08v-3a170.09 170.09 0 01132-166.85l.43-.12L394.54 8.2l-11.48 64.86L171.59 112a104.86 104.86 0 00-11.91 2.68c-45.89 13.43-77.97 56.22-77.97 103.97z" transform="translate(-14.55 -8.2)" fill="url(#b)"/><path d="M251.74 222a60.69 60.69 0 01-8.74 28.23c-.08.12-.11.19-.19.31a33.16 33.16 0 11-37.32-49.85l.7-.15c1.9-.55 40.15-7.41 40.15-7.41a61 61 0 015.4 28.87z" transform="translate(-14.55 -8.2)" style="mix-blend-mode:multiply" fill="url(#a)"/><path d="M297.79 230A141.82 141.82 0 0115 230c-.12-1.28-.19-2.56-.23-3.84s-.12-2.72-.16-4.08v-3c21.11.19 45.12.15 67.23 2.29a108.65 108.65 0 0034.06 76.19A107.37 107.37 0 00189.94 327c2.29 0 4.62-.07 7-.19A108.17 108.17 0 00297.79 230z" transform="translate(-14.55 -8.2)" style="mix-blend-mode:multiply" fill="url(#c)"/></g></svg>